<svg viewBox="0 0 32 32" xmlns="http://www.w3.org/2000/svg">
  <defs>
    <linearGradient id="bgGradient" x1="0%" y1="0%" x2="100%" y2="100%">
      <stop offset="0%" style="stop-color:#1e293b;stop-opacity:1" />
      <stop offset="100%" style="stop-color:#0f172a;stop-opacity:1" />
    </linearGradient>
    <linearGradient id="iconGradient" x1="0%" y1="0%" x2="100%" y2="100%">
      <stop offset="0%" style="stop-color:#3b82f6;stop-opacity:1" />
      <stop offset="50%" style="stop-color:#6366f1;stop-opacity:1" />
      <stop offset="100%" style="stop-color:#8b5cf6;stop-opacity:1" />
    </linearGradient>
    <linearGradient id="ringGradient" x1="0%" y1="0%" x2="100%" y2="100%">
      <stop offset="0%" style="stop-color:#3b82f6;stop-opacity:0.8" />
      <stop offset="100%" style="stop-color:#8b5cf6;stop-opacity:0.8" />
    </linearGradient>
  </defs>
  
  <!-- Background circle with dark gradient -->
  <circle cx="16" cy="16" r="15" fill="url(#bgGradient)" stroke="url(#ringGradient)" stroke-width="2"/>
  
  <!-- Chart bars based on Tabler Icons chart-bar design -->
  <g transform="translate(16, 16)">
    <!-- Bar 1 (shortest) -->
    <rect x="-7" y="2" width="2.5" height="6" rx="0.5" fill="url(#iconGradient)" opacity="0.9"/>
    
    <!-- Bar 2 (medium) -->
    <rect x="-3" y="-2" width="2.5" height="10" rx="0.5" fill="url(#iconGradient)" opacity="1"/>
    
    <!-- Bar 3 (tallest) -->
    <rect x="1" y="-6" width="2.5" height="14" rx="0.5" fill="url(#iconGradient)" opacity="0.95"/>
    
    <!-- Bar 4 (medium-high) -->
    <rect x="5" y="-4" width="2.5" height="12" rx="0.5" fill="url(#iconGradient)" opacity="0.85"/>
    
    <!-- Base line -->
    <line x1="-8" y1="8.5" x2="8.5" y2="8.5" stroke="url(#iconGradient)" stroke-width="1" opacity="0.6" stroke-linecap="round"/>
    
    <!-- Y-axis line -->
    <line x1="-8" y1="-7" x2="-8" y2="8.5" stroke="url(#iconGradient)" stroke-width="1" opacity="0.6" stroke-linecap="round"/>
    
    <!-- Subtle glow effect for bars -->
    <rect x="-7" y="2" width="2.5" height="6" rx="0.5" fill="none" stroke="url(#iconGradient)" stroke-width="0.5" opacity="0.4"/>
    <rect x="-3" y="-2" width="2.5" height="10" rx="0.5" fill="none" stroke="url(#iconGradient)" stroke-width="0.5" opacity="0.4"/>
    <rect x="1" y="-6" width="2.5" height="14" rx="0.5" fill="none" stroke="url(#iconGradient)" stroke-width="0.5" opacity="0.4"/>
    <rect x="5" y="-4" width="2.5" height="12" rx="0.5" fill="none" stroke="url(#iconGradient)" stroke-width="0.5" opacity="0.4"/>
  </g>
</svg>
